<?xml version="1.0" encoding="utf-8"?>
<!-- Generator: Adobe Illustrator 21.1.0, SVG Export Plug-In . SVG Version: 6.00 Build 0)  -->
<svg version="1.1" id="Capa_1" xmlns="http://www.w3.org/2000/svg" xmlns:xlink="http://www.w3.org/1999/xlink" x="0px" y="0px"
	 viewBox="0 0 209.3 209.3" style="enable-background:new 0 0 209.3 209.3;" xml:space="preserve">
<style type="text/css">
	.st0{fill:#EFA706;}
	.st1{fill:#FFFFFF;}
	.st2{fill:#FFFEFD;}
</style>
<g>
	<path class="st0" d="M105.6,101.8c9.9-6.4,27.4-16.5,28.1-42.2c0.5-20.3-10-49.5-49.2-50.9C53,7.7,39.9,28.3,36.1,46.7l-0.9-0.1
		c-1.9,0-3.4,1.3-5.3,2.9c-2.1,1.8-4.7,4-7.8,4.3c-3.6,0.4-8.1-1.2-11.7-2.4c-4.2-1.4-6.6-2-8.3-0.8c-1.5,1.2-2.2,3.3-2,6.2
		c0.3,6.3,5,18.9,16,25.8c7.7,4.8,16.2,5.5,20.7,5.5c0,0,0,0,0,0c2.4,0,4.9-0.2,7.4-0.7c2.7,4.2,5.2,7.5,6,9.8
		c2.1,5.9-27.8,25.1-27.8,55c0,29.9,22,48.5,56.7,48.5h55c30.6,0,70.8-29.9,75.3-92.5C180.8,132.2,167,98.1,105.6,101.8z
		 M149.2,155.4l-20.6,11.2l13.4,9.3c0,0-49.9,15.8-72.2-6.9c-11-11.2-13.1-28.5,4.1-38.8c17.2-10.3,84.6,3.9,84.6,3.9l-24.2,13.7
		L149.2,155.4z"/>
</g>
<path class="st1" d="M149.3,155.9L128.6,167l13.4,9.3c0,0-49.9,15.8-72.2-6.9c-11-11.2-13.1-28.5,4.1-38.8
	c17.2-10.3,84.6,3.9,84.6,3.9l-24.2,13.7L149.3,155.9z"/>
<path class="st1" d="M18.9,77.9C8.8,71.6,5,58.9,5.3,55.5c0.9,0.2,2.2,0.7,3.2,1c4.1,1.4,9.4,3.2,14.1,2.7c4.8-0.5,8.3-3.4,10.8-5.6
	c0.6-0.5,1.4-1.2,1.9-1.5c0.9,0.3,1,0.7,1.2,3.1c0.2,2.3,0.5,5.4,2.4,9c1.4,2.8,3.6,5.7,5.6,8.5c1.7,2.3,4.3,5.9,4.5,6.4
	c-0.4,1.2-4.9,3.3-12.2,3.3C30.2,82.6,23.7,80.9,18.9,77.9z"/>
<path class="st2" d="M56.9,49.4c0-4.9,4-8.9,8.9-8.9c4.9,0,8.9,4,8.9,8.9c0,4.9-4,8.9-8.9,8.9C60.9,58.3,56.9,54.3,56.9,49.4z"/>
</svg>
